<svg version="1.0" xmlns="http://www.w3.org/2000/svg" width="495.000000ptpx" height="74.000000ptpx" viewBox="0 0 495.000000 74.000000" preserveAspectRatio="xMidYMid meet" transform="rotate(0) scale(1, 1)">

<g transform="translate(0.000000,74.000000) scale(0.100000,-0.100000)" fill="#101c37" stroke="none">
<path d="M344 559 c-17 -19 -19 -41 -22 -191 -3 -150 -2 -172 14 -189 20 -23&#10;57 -25 74 -4 6 8 14 41 17 75 l6 60 62 0 62 0 6 -56 c3 -30 11 -61 17 -69 16&#10;-20 47 -24 67 -10 16 12 18 31 17 189 -1 190 -5 206 -54 206 -35 0 -50 -32&#10;-50 -105 l0 -55 -64 0 c-62 0 -65 1 -70 28 -3 15 -5 45 -5 67 1 29 -5 44 -21&#10;57 -28 23 -33 23 -56 -3z"/>
<path d="M883 569 c-31 -11 -45 -37 -104 -183 -63 -157 -70 -199 -39 -216 30&#10;-16 68 -5 82 24 9 22 18 25 77 28 64 3 67 2 96 -31 28 -31 34 -33 60 -24 48&#10;15 44 49 -24 211 -33 79 -66 153 -75 166 -17 27 -43 36 -73 25z m43 -211 c6&#10;-34 6 -35 -25 -30 l-30 4 14 35 c8 20 15 38 15 41 0 20 22 -21 26 -50z"/>
<path d="M1255 565 c-129 -34 -187 -205 -109 -318 41 -60 103 -89 176 -85 92&#10;6 157 71 114 114 -18 18 -40 18 -93 -1 -74 -26 -123 12 -123 93 0 35 6 49 29&#10;73 33 33 64 36 118 14 32 -14 39 -14 60 0 27 18 30 56 6 77 -46 40 -109 52&#10;-178 33z"/>
<path d="M1530 560 c-18 -18 -20 -33 -20 -193 0 -162 1 -175 20 -192 16 -15&#10;26 -17 47 -9 21 7 29 19 38 59 12 53 22 75 33 75 4 0 31 -29 61 -65 58 -71 81&#10;-83 117 -64 38 20 29 50 -36 127 -33 40 -60 75 -60 79 0 5 20 29 45 56 25 26&#10;52 59 61 72 16 24 15 27 -1 45 -34 38 -63 26 -140 -55 -38 -41 -73 -75 -77&#10;-75 -5 0 -8 29 -8 64 0 56 -3 67 -22 80 -29 20 -34 20 -58 -4z"/>
<path d="M2112 564 c-12 -8 -22 -25 -22 -38 0 -33 127 -339 147 -353 41 -31&#10;79 -1 112 87 24 63 41 89 47 75 3 -5 19 -44 37 -85 26 -58 39 -77 60 -84 42&#10;-15 68 20 131 182 57 144 66 188 44 210 -20 20 -66 15 -78 -9 -20 -35 -70&#10;-164 -70 -176 0 -34 -19 -5 -49 76 -18 49 -41 97 -50 105 -21 19 -55 21 -69 3&#10;-14 -17 -72 -158 -72 -175 0 -34 -25 1 -49 68 -25 68 -67 130 -88 130 -5 0&#10;-19 -7 -31 -16z"/>
<path d="M2750 551 c-6 -11 -10 -90 -10 -185 0 -153 2 -168 20 -186 25 -25 45&#10;-25 70 0 18 18 20 33 20 183 0 131 -3 167 -16 185 -20 28 -69 30 -84 3z"/>
<path d="M2930 557 c-17 -8 -26 -22 -28 -43 -4 -41 19 -59 74 -56 l44 2 0&#10;-135 c0 -127 1 -135 22 -149 28 -20 43 -20 62 0 13 12 16 41 16 150 l0 134 41&#10;0 c55 0 79 15 79 49 0 52 -23 61 -161 61 -79 0 -133 -5 -149 -13z"/>
<path d="M3300 551 c-6 -11 -10 -90 -10 -185 0 -153 2 -168 20 -186 45 -45 90&#10;-8 90 75 l0 55 65 0 65 0 0 -44 c0 -25 4 -56 10 -70 12 -34 54 -44 80 -21 18&#10;17 20 32 20 184 0 181 -8 211 -54 211 -34 0 -43 -16 -51 -92 l-7 -68 -64 0&#10;-64 0 0 58 c0 36 -6 66 -16 80 -20 28 -69 30 -84 3z"/>
<path d="M3882 558 c-8 -8 -12 -65 -12 -190 l0 -178 25 -16 c21 -14 31 -15 50&#10;-6 23 11 25 17 25 82 0 38 4 70 9 70 6 0 22 -16 37 -35 48 -63 61 -64 113 -9&#10;l46 49 5 -66 c5 -72 20 -99 55 -99 49 0 55 22 55 211 0 188 -3 199 -51 199&#10;-24 0 -37 -14 -90 -90 -34 -50 -67 -89 -73 -87 -6 2 -28 28 -49 58 -68 98 -87&#10;119 -110 119 -13 0 -28 -5 -35 -12z"/>
<path d="M4370 550 c-18 -18 -20 -33 -20 -188 0 -211 -6 -202 143 -202 94 0&#10;109 2 127 20 47 47 11 80 -87 80 -56 0 -72 3 -77 16 -10 26 3 34 57 34 60 0&#10;72 6 85 41 17 45 0 59 -73 59 -67 0 -80 8 -70 40 6 17 15 20 76 20 81 0 109&#10;11 109 44 0 45 -27 56 -143 56 -94 0 -109 -2 -127 -20z"/>
</g>
</svg>